<svg xmlns="http://www.w3.org/2000/svg" viewBox="0 0 1108.4 434.2"><title>welcome-bg</title><g id="Layer_1" data-name="Layer 1"><g style="opacity:0.28"><path d="M532.4,359.9l555.2.6c-4.6-23.1-8.6-47-20.8-67.6s-33.7-33.9-45.1-55-.9-36.6,13.8-51.9c17.7-18.6,33-40.4,39.3-65.4,10.3-41-8.2-83.1-52-89.6C975.9,23.9,926.9,46.7,880,49.3c-22.9,1.2-47.3-.1-68.2-10.3-19.2-9.4-34.6-25.6-54.9-32.8C718.3-7.5,656.7,0,633.2,37.7c-16.4,26.4-16.3,57.5-13.8,87.4,1.9,23.9,22,51.9,15.2,75.5-5.2,18.4-30.5,30.9-45.5,42.8s-31.9,27.6-41.6,45.1c-11.9,21.4-16.3,47.2-15.1,71.4" transform="translate(0 0.2)" style="fill:#cfe4f7"/><path d="M963.8,189.4s-.6-1.4,2.2-14.1c0,0,12.4-18.2,8.3-31.1a34.6,34.6,0,0,0-3.2-5.2c-1.9-2.6-4.3-5.6-7.6-6.9a3.6,3.6,0,0,0-2.3-.3,2.4,2.4,0,0,0-1.5,1.6,4.8,4.8,0,0,0,.3,2.9,27,27,0,0,1,2.9,11.7,13.3,13.3,0,0,1-1,4.8,8.2,8.2,0,0,1-2.3,3.5c-1.4,1-2.9-.4-3.7-1.3a35.9,35.9,0,0,1-3.7-5c-.6-.9-.8-2.2-1.7-3a3.2,3.2,0,0,0-4,.3c-1.2,1.3.5,4,1,5.5s1.7,4.9,2.4,7.4c2.4,7.9,5.4,16.2,1.3,24.1C955.7,186.4,959.1,187.6,963.8,189.4Z" transform="translate(0 0.2)" style="fill:#fdcba8"/><polygon points="804.4 204.6 804.4 232.4 832.5 232.4 831.7 204.6 804.4 204.6" style="fill:#ffb988"/><path d="M831.8,207.6l.2,4.8c-8.2,3.7-14.1,3.1-14.1,3.1a25.4,25.4,0,0,1-13.5-3.6v-2.8Z" transform="translate(0 0.2)" style="fill:#787878;opacity:0.2"/><circle cx="779.2" cy="167" r="7.2" style="fill:#ffcdaa"/><circle cx="780.3" cy="167.2" r="4.8" style="fill:#ffdfc9"/><circle cx="856.7" cy="167" r="7.2" style="fill:#ffcdaa"/><circle cx="855.7" cy="167.2" r="4.8" style="fill:#ffdfc9"/><path d="M856,159.4c.9,7.2-.7,19-.7,19-4.3,17.9-20.8,35-39,33.9s-29.8-16.8-35.4-32.8c0,0-2.3-15-1-20.4V130.9H856Z" transform="translate(0 0.2)" style="fill:#ffcdaa"/><path d="M782.3,174.2s2.2-.9,1.9-4.9c0,0-1.3-9-.6-11.1,0,0,3-19.1,5.9-21.6,0,0,.8-2.6,3.5-.7,0,0,8.3,9.5,15.2,10.8,0,0,15.9,4,25.1,3,0,0-10.6-8.1-11.3-10,0,0-.3-1.1.8-.4s8.4,5.8,24.7,6.4c0,0-10.4-5.4-12.1-11.8h0s0-.6.6-.2a30.8,30.8,0,0,1,18,19.5s1.9,10.5.4,13.8,0,.2,0,.2v5.3a1.8,1.8,0,0,0,1.7,1.5,1.8,1.8,0,0,0,1.7-1.5s2.6-31.7,1.1-36c0,0-2.7-19.6-30.8-25.5,0,0-19.3-5-32.4,5.6,0,0-3.8-1.5-3.9-5.2,0,0-.5-.6-.6.4l.7,5.9s.2.4-.7.2-2-2.2-5.9-1.2a9.4,9.4,0,0,0-2.9.9s5.1-.3,6.6,2c0,0,.9.6-.2.7s-8.1-1.3-10.2,7.1a157.7,157.7,0,0,0,.7,27.2l1.3,17.8S781.1,174.2,782.3,174.2Z" transform="translate(0 0.2)" style="fill:#1d1718"/><path d="M789.3,124.9a1.7,1.7,0,0,0,.1.7,4.2,4.2,0,0,0,1.1,1.8,59.3,59.3,0,0,0,11.9,12.1,40.9,40.9,0,0,0,11.4,5.8,27.1,27.1,0,0,0,8.4,1.2c-.3,0-.9-.6-1.2-.8l-1.3-.9-2.6-1.8-4.7-3.3a93.1,93.1,0,0,1-9.2-7.4l-1.3-1.3a70.8,70.8,0,0,1-5.2-5.9c-.7-.9-1.2-1.9-2.3-2.4a4.3,4.3,0,0,0-3.5-.1A2.5,2.5,0,0,0,789.3,124.9Z" transform="translate(0 0.2)" style="fill:#2e2829"/><path d="M674.1,196.2s-1.3-.8-4.1-14.9c0,0-12-20.1-8-34.4a53.3,53.3,0,0,1,3.1-5.8c1.8-2.8,4.2-6.2,7.4-7.6a3.3,3.3,0,0,1,2.2-.3,2.4,2.4,0,0,1,1.4,1.8,4.5,4.5,0,0,1-.3,3.2,31.7,31.7,0,0,0-2.7,12.9,16,16,0,0,0,.9,5.3,10,10,0,0,0,2.3,4c1.3,1.1,2.7-.6,3.5-1.5a47.2,47.2,0,0,0,3.6-5.5c.5-1.1.7-2.5,1.6-3.4a2.8,2.8,0,0,1,3.9.3c1.2,1.5-.5,4.5-1,6.1s-1.6,5.5-2.3,8.3c-2.3,8.7-5.2,17.9-1.2,26.6A97.1,97.1,0,0,1,674.1,196.2Z" transform="translate(0 0.2)" style="fill:#fdcba8"/><path d="M854,223.8l3.3,1c4.7,1.7,9.1,4.1,13.9,5.7,7.1,2.2,14.6,3.6,22,2.8,15.2-1.6,27.3-13.4,35.1-24.1s18.5-20.5,25.4-29.8l12.7,1.2c.5,2.3-.4,4.5-.7,6.7a73,73,0,0,1-5.8,19c-2.9,6.3-7,11.9-11.6,17.4l-.6.8a174.2,174.2,0,0,1-32.8,30c-10.3,7.2-23.7,14.7-37.3,14.9-3.6,0-11-2-12.9,2.1a6.3,6.3,0,0,0-.4,2.7c-.7,26.7,1.2,48.2,1.8,74.9a1.7,1.7,0,0,1,.1.7c-57.7,12.6-96.8-.1-96.8-.1.3-14.5,1.1-23.7,1.5-38.2.1-8,.4-16.4.5-24.6.1-4.9,3.6-16.3-4.4-17.1-2.5-.3-5-.2-7.5-.3-12.4-.7-24.1-5.5-34.1-11.9-13.3-8.5-25.5-19.7-35.5-31.1s-15.3-26-19.3-39.4c0,0-1.8-4.4-1.3-6.5l13.4-2.8c6.9,9.3,18.2,21.9,25,31.4s19.9,22.5,35.1,24.1c8.4.9,16.5-1,24.4-3.4,4-1.3,7.7-3.2,11.5-4.8a35.5,35.5,0,0,1,12.5-2.3c3.8-.2,8-.5,11.6.6,0,0,6.7,8.1,14.5,8.5,4.7.2,9.8-5.7,14.3-8.5,3.9-.4,7.8-.6,11.7-.7A35.1,35.1,0,0,1,854,223.8Z" transform="translate(0 0.2)" style="fill:#00143f"/><polygon points="818.6 83.8 748.4 111.9 820.1 133.3 889 111.1 818.6 83.8" style="fill:#00143f"/><rect x="777.4" y="110.7" width="81.1" height="20.38" style="fill:#0040ad"/><rect x="876" y="75.8" width="1.3" height="51.91" style="fill:#f19608"/><path d="M876.7,127.1a3.6,3.6,0,0,0-3.7,3.7v9.4h7.4v-9.4A3.7,3.7,0,0,0,876.7,127.1Z" transform="translate(0 0.2)" style="fill:#f19608"/><polygon points="801.8 215.7 817.3 232 806.7 242.7 791.4 227.4 801.8 215.7" style="fill:#fff"/><polygon points="832.9 215.7 817.3 232 828 242.7 843.2 227.4 832.9 215.7" style="fill:#fff"/><path d="M850.2,223.1a32.1,32.1,0,0,0-6.9-.5l-4,.2,3.9,4.4L828,242.5l-10.7-10.6-10.6,10.6-15.3-15.3,4.1-4.6h-4.3a59.2,59.2,0,0,0-6.2.6l32.9,36.6Z" transform="translate(0 0.2)" style="fill:#eaeaea"/><path d="M857.4,224.9l-3.4-1.1-3.8-.7L817.9,260,785,223.4a29.5,29.5,0,0,0-6.3,1.7l-8,3.5v43.1a8.1,8.1,0,0,1,1.5,5.3h92c0-.9.1-1.8.1-2.7a6.1,6.1,0,0,1,.4-2.7,4.3,4.3,0,0,1,2.2-2V228.9C863.8,227.5,860.7,226,857.4,224.9Z" transform="translate(0 0.2)" style="fill:#0040ad"/><path d="M762.8,261.3c.1,4-.9,8.6-1,11.3-.2,9.3-.4,18.8-.6,27.9-.4,16.4-1.3,26.8-1.7,43.3a139.1,139.1,0,0,0,17.1,3.7V261.3Z" transform="translate(0 0.2)" style="fill:#001c49"/><path d="M776.6,261.3v86.2a208.9,208.9,0,0,0,25.5,2.5V261.3Z" transform="translate(0 0.2)" style="fill:#00143f"/><path d="M802.1,261.3V350a244,244,0,0,0,25.4-.3V261.3Z" transform="translate(0 0.2)" style="fill:#001c49"/><path d="M827.5,349.7c8-.5,16.5-1.4,25.5-2.8V261.3H827.5Z" transform="translate(0 0.2)" style="fill:#00143f"/><path d="M869.1,343.8V343c-.7-29.2-2.8-52.9-2.2-81.7H853v85.6C858.2,346.1,863.6,345.1,869.1,343.8Z" transform="translate(0 0.2)" style="fill:#001c49"/><path d="M1097.8,359.9H532.4a10.6,10.6,0,1,0,0,21.2h565.4a10.6,10.6,0,1,0,0-21.2Z" transform="translate(0 0.2)" style="fill:#3a8ce3"/><path d="M1104.1,362a7.5,7.5,0,0,1,.2,2.1,10.5,10.5,0,0,1-10.6,10.6H528.4a10.4,10.4,0,0,1-6.3-2.1,10.5,10.5,0,0,0,10.3,8.5h565.4a10.6,10.6,0,0,0,6.3-19.1Z" transform="translate(0 0.2)" style="fill:#88cffa"/><path d="M891.7,246.3H738.5A12.6,12.6,0,0,0,725.9,259l5.2,100.9h168L904.4,259A12.7,12.7,0,0,0,891.7,246.3Z" transform="translate(0 0.2)" style="fill:#eee"/><polygon points="730.8 355 899.4 355 899.1 360.1 731.1 360.1 730.8 355" style="fill:#00143f"/><circle cx="815.1" cy="291.2" r="9.5" style="fill:#00143f"/><rect x="930.7" y="333.2" width="89.9" height="1.56" style="fill:#fff"/><rect x="930.7" y="334.7" width="90.2" height="1.56" style="fill:#fff"/><rect x="930.7" y="336.3" width="90.4" height="1.56" style="fill:#f5e2d5"/><rect x="930.7" y="337.9" width="90.2" height="1.56" style="fill:#fff"/><rect x="930.7" y="339.4" width="89.9" height="1.56" style="fill:#fff"/><rect x="930.7" y="341" width="90.4" height="1.56" style="fill:#f5e2d5"/><rect x="930.7" y="342.5" width="90.4" height="1.56" style="fill:#f5e2d5"/><rect x="930.7" y="344.1" width="89.9" height="1.56" style="fill:#fff"/><rect x="930.7" y="345.7" width="90.2" height="1.56" style="fill:#fff"/><rect x="930.7" y="347.2" width="90.2" height="1.56" style="fill:#f5e2d5"/><rect x="930.7" y="348.8" width="89.9" height="1.56" style="fill:#fff"/><rect x="930.7" y="350.4" width="89.9" height="1.56" style="fill:#fff"/><rect x="930.7" y="351.9" width="89.5" height="1.56" style="fill:#f5e2d5"/><rect x="930.7" y="353.5" width="89.5" height="1.56" style="fill:#fff"/><rect x="930.7" y="355" width="89.9" height="1.56" style="fill:#fff"/><rect x="930.7" y="356.6" width="89.9" height="1.56" style="fill:#f5e2d5"/><path d="M933.6,333.5s21.3,21.7,73,23.2H937.1a10,10,0,0,1-3.5-.5C932,355.6,933.6,333.5,933.6,333.5Z" transform="translate(0 0.2)" style="fill:#ccc;opacity:0.29"/><path d="M933.6,333.5a22,22,0,0,1,0,22.7s-15.4-.8-6.6-20.2C927,336,932,330.4,933.6,333.5Z" transform="translate(0 0.2)" style="fill:#00143f"/><path d="M1023.5,359.9H937.1a14.5,14.5,0,0,1-14.6-14.5v-1a14.6,14.6,0,0,1,14.6-14.6h86.4a1.6,1.6,0,1,1,0,3.2H937.1a11.4,11.4,0,0,0-11.4,11.4v1a11.4,11.4,0,0,0,11.4,11.3h86.4a1.6,1.6,0,0,1,1.6,1.6A1.6,1.6,0,0,1,1023.5,359.9Z" transform="translate(0 0.2)" style="fill:#f63e9d"/><rect x="917.3" y="307.3" width="77.4" height="1.35" style="fill:#fff"/><rect x="917.3" y="308.6" width="77.6" height="1.35" style="fill:#fff"/><rect x="917.3" y="310" width="77.9" height="1.35" style="fill:#f5e2d5"/><rect x="917.3" y="311.3" width="77.6" height="1.35" style="fill:#fff"/><rect x="917.3" y="312.7" width="77.4" height="1.35" style="fill:#fff"/><rect x="917.3" y="314" width="77.9" height="1.35" style="fill:#f5e2d5"/><rect x="917.3" y="315.4" width="77.9" height="1.35" style="fill:#fff"/><rect x="917.3" y="316.7" width="77.4" height="1.35" style="fill:#fff"/><rect x="917.3" y="318.1" width="77.6" height="1.35" style="fill:#f5e2d5"/><rect x="917.3" y="319.4" width="77.6" height="1.35" style="fill:#f5e2d5"/><rect x="917.3" y="320.8" width="77.4" height="1.35" style="fill:#fff"/><rect x="917.3" y="322.1" width="77.4" height="1.35" style="fill:#fff"/><rect x="917.3" y="323.4" width="77.1" height="1.35" style="fill:#f5e2d5"/><rect x="917.3" y="324.8" width="77.1" height="1.35" style="fill:#fff"/><rect x="917.3" y="326.1" width="77.4" height="1.35" style="fill:#fff"/><rect x="917.3" y="327.5" width="77.4" height="1.35" style="fill:#f5e2d5"/><path d="M920,305.6s20.4,20.8,69.9,22.3H923.3a7.9,7.9,0,0,1-3.3-.6C918.5,326.7,920,305.6,920,305.6Z" transform="translate(0 0.2)" style="fill:#ccc;opacity:0.28"/><path d="M919.8,307.6a18.8,18.8,0,0,1,0,19.5s-13.3-.7-5.6-17.4C914.2,309.7,918.4,304.9,919.8,307.6Z" transform="translate(0 0.2)" style="fill:#00143f"/><path d="M997.3,330.3H922.8a12.5,12.5,0,0,1-12.5-12.5v-.9a12.5,12.5,0,0,1,12.5-12.5h74.5a1.3,1.3,0,0,1,1.3,1.4,1.3,1.3,0,0,1-1.3,1.3H922.8a9.8,9.8,0,0,0-9.8,9.8v.9a9.8,9.8,0,0,0,9.8,9.8h74.5a1.3,1.3,0,0,1,1.3,1.3A1.3,1.3,0,0,1,997.3,330.3Z" transform="translate(0 0.2)" style="fill:#ffca57"/><rect x="921.5" y="255.3" width="77.4" height="1.35" transform="translate(1920.4 512.2) rotate(180)" style="fill:#fff"/><rect x="921.3" y="256.7" width="77.6" height="1.35" transform="translate(1920.2 514.9) rotate(180)" style="fill:#fff"/><rect x="921" y="258" width="77.9" height="1.35" transform="translate(1919.9 517.6) rotate(180)" style="fill:#f5e2d5"/><rect x="921.3" y="259.4" width="77.6" height="1.35" transform="translate(1920.2 520.2) rotate(180)" style="fill:#fff"/><rect x="921.5" y="260.7" width="77.4" height="1.35" transform="translate(1920.4 522.9) rotate(180)" style="fill:#fff"/><rect x="921" y="262.1" width="77.9" height="1.35" transform="translate(1919.9 525.6) rotate(180)" style="fill:#f5e2d5"/><rect x="921" y="263.4" width="77.9" height="1.35" transform="translate(1919.9 528.3) rotate(180)" style="fill:#fff"/><rect x="921.5" y="264.7" width="77.4" height="1.35" transform="translate(1920.4 531) rotate(180)" style="fill:#fff"/><rect x="921.3" y="266.1" width="77.6" height="1.35" transform="translate(1920.2 533.7) rotate(180)" style="fill:#f5e2d5"/><rect x="921.3" y="267.4" width="77.6" height="1.35" transform="translate(1920.2 536.4) rotate(180)" style="fill:#f5e2d5"/><rect x="921.5" y="268.8" width="77.4" height="1.35" transform="translate(1920.4 539.1) rotate(180)" style="fill:#fff"/><rect x="921.5" y="270.1" width="77.4" height="1.35" transform="translate(1920.4 541.8) rotate(180)" style="fill:#fff"/><rect x="921.8" y="271.5" width="77.1" height="1.35" transform="translate(1920.7 544.5) rotate(180)" style="fill:#f5e2d5"/><rect x="921.8" y="272.8" width="77.1" height="1.35" transform="translate(1920.7 547.2) rotate(180)" style="fill:#fff"/><rect x="921.5" y="274.2" width="77.4" height="1.35" transform="translate(1920.4 549.9) rotate(180)" style="fill:#fff"/><rect x="921.5" y="275.5" width="77.4" height="1.35" transform="translate(1920.4 552.5) rotate(180)" style="fill:#f5e2d5"/><path d="M996.2,253.8s-20.4,20.8-69.9,22.3h66.6a7.9,7.9,0,0,0,3.3-.6C997.8,274.9,996.2,253.8,996.2,253.8Z" transform="translate(0 0.2)" style="fill:#ccc;opacity:0.28"/><path d="M996.5,255.8a18.6,18.6,0,0,0,0,19.5s13.2-.7,5.6-17.4C1002.1,257.9,997.8,253.1,996.5,255.8Z" transform="translate(0 0.2)" style="fill:#00143f"/><path d="M919,278.5h74.5A12.5,12.5,0,0,0,1006,266v-.9a12.5,12.5,0,0,0-12.5-12.5H919a1.4,1.4,0,0,0-1.4,1.4,1.3,1.3,0,0,0,1.4,1.3h74.5a9.8,9.8,0,0,1,9.8,9.8v.9a9.8,9.8,0,0,1-9.8,9.8H919a1.3,1.3,0,0,0-1.4,1.3A1.4,1.4,0,0,0,919,278.5Z" transform="translate(0 0.2)" style="fill:#f63e9d"/><rect x="938.9" y="281.4" width="77.4" height="1.35" style="fill:#fff"/><rect x="938.9" y="282.7" width="77.6" height="1.35" style="fill:#fff"/><rect x="938.9" y="284.1" width="77.9" height="1.35" style="fill:#f5e2d5"/><rect x="938.9" y="285.4" width="77.6" height="1.35" style="fill:#fff"/><rect x="938.9" y="286.8" width="77.4" height="1.35" style="fill:#f5e2d5"/><rect x="938.9" y="288.1" width="77.9" height="1.35" style="fill:#fff"/><rect x="938.9" y="289.5" width="77.9" height="1.35" style="fill:#f5e2d5"/><rect x="938.9" y="290.8" width="77.4" height="1.35" style="fill:#fff"/><rect x="938.9" y="292.2" width="77.6" height="1.35" style="fill:#f5e2d5"/><rect x="938.9" y="293.5" width="77.6" height="1.35" style="fill:#fff"/><rect x="938.9" y="294.9" width="77.4" height="1.35" style="fill:#f5e2d5"/><rect x="938.9" y="296.2" width="77.4" height="1.35" style="fill:#fff"/><rect x="938.9" y="297.5" width="77.1" height="1.35" style="fill:#f5e2d5"/><rect x="938.9" y="298.9" width="77.1" height="1.35" style="fill:#f5e2d5"/><rect x="938.9" y="300.2" width="77.4" height="1.35" style="fill:#fff"/><rect x="938.9" y="301.6" width="77.4" height="1.35" style="fill:#f5e2d5"/><path d="M940.6,280.9s19.4,19.8,66.7,21.2H943.8a8.3,8.3,0,0,1-3.2-.5C939.1,301,940.6,280.9,940.6,280.9Z" transform="translate(0 0.2)" style="fill:#ccc;opacity:0.28"/><path d="M941.4,281.7a18.8,18.8,0,0,1,0,19.5s-13.3-.7-5.7-17.4C935.7,283.8,940,279,941.4,281.7Z" transform="translate(0 0.2)" style="fill:#ffca57"/><path d="M1018.9,304.4H944.4a12.6,12.6,0,0,1-12.6-12.5V291a12.6,12.6,0,0,1,12.6-12.5h74.5a1.3,1.3,0,0,1,1.3,1.4,1.3,1.3,0,0,1-1.3,1.3H944.4a9.8,9.8,0,0,0-9.8,9.8v.9a9.8,9.8,0,0,0,9.8,9.8h74.5a1.3,1.3,0,0,1,1.3,1.3A1.3,1.3,0,0,1,1018.9,304.4Z" transform="translate(0 0.2)" style="fill:#3a8ce3"/><polygon points="620 351.3 592.3 271.6 649.4 219.8 652.2 222.9 597.3 272.8 624 349.9 620 351.3" style="fill:#0040ad"/><path d="M701.3,224.2c-12.3-13.6-32-15.8-44-4.9s-12,30.7.2,44.3l43.8-39.4" transform="translate(0 0.2)" style="fill:#006bc2"/><path d="M697.9,227.2l3.4-3c-12.3-13.6-32-15.7-44-4.9l-1.7,1.7C667.8,211.7,686.2,214.3,697.9,227.2Z" transform="translate(0 0.2)" style="fill:#7cb4fd"/><path d="M664.9,214.4c-3.8-4.1-9.8-4.8-13.4-1.5s-3.7,9.4.1,13.5l13.3-12" transform="translate(0 0.2)" style="fill:#006bc2"/><path d="M664.2,215l.7-.6c-3.8-4.1-9.8-4.8-13.4-1.5l-.4.4C654.8,210.2,660.6,211,664.2,215Z" transform="translate(0 0.2)" style="fill:#7cb4fd"/><path d="M676,246.9c2.5,2.8,6.5,3.2,9,1s2.4-6.3-.1-9.1l-8.9,8.1" transform="translate(0 0.2)" style="fill:#ffab41"/><rect x="590.9" y="349.6" width="60.2" height="10.49" rx="3.5" style="fill:#006bc2"/><path d="M648.5,349.4c0,.2.1.4.1.6v4.2a3.1,3.1,0,0,1-3.1,3.1H591a3,3,0,0,0,3,2.6h54a3.1,3.1,0,0,0,3.1-3.1v-4.3A3.1,3.1,0,0,0,648.5,349.4Z" transform="translate(0 0.2)" style="fill:#7cb4fd"/><rect x="684.7" y="274.1" width="4" height="41.24" transform="translate(-30.9 86.4) rotate(-7)" style="fill:#0053a7"/><polygon points="691.2 315.2 687.2 315.6 689.7 319.5 691.2 315.2" style="fill:#30304f"/><rect x="681.7" y="274.3" width="4.6" height="2.16" transform="translate(-28.6 86) rotate(-7)" style="fill:#00143f"/><rect x="681.3" y="274.6" width="1.2" height="13.72" transform="translate(-29.3 85.7) rotate(-7)" style="fill:#00143f"/><rect x="684.8" y="276.5" width="0.7" height="39.09" transform="translate(-31.1 86.2) rotate(-7)" style="fill:#1d70bf"/><rect x="682.4" y="272.4" width="3.2" height="1.91" transform="translate(-28.3 85.9) rotate(-7)" style="fill:#0053a7"/><polygon points="690.3 314.8 686.3 314.2 687.7 318.6 690.3 314.8" style="fill:#30304f"/><rect x="674.1" y="294" width="39.1" height="4.01" transform="translate(336.4 960.4) rotate(-84.8)" style="fill:#ff9729"/><rect x="694.3" y="276.6" width="1.4" height="39.09" transform="translate(29.5 -61.2) rotate(5.2)" style="fill:#ffab41"/><rect x="691.7" y="276.4" width="0.7" height="39.09" transform="translate(29.4 -60.9) rotate(5.2)" style="fill:#ffab41"/><path d="M695.9,271.4h0a2,2,0,0,0-2.2,1.8v.4l4,.4v-.4A2,2,0,0,0,695.9,271.4Z" transform="translate(0 0.2)" style="fill:#f63e9d"/><rect x="693.5" y="273.8" width="4" height="2.79" transform="translate(27.6 -61.3) rotate(5.2)" style="fill:#ffdd9c"/><rect x="681.4" y="295.2" width="39.1" height="4.01" transform="translate(331.9 963.3) rotate(-84)" style="fill:#ff9729"/><rect x="701.6" y="277.8" width="1.4" height="39.09" transform="translate(35 -71.8) rotate(6)" style="fill:#ffab41"/><rect x="698.9" y="277.5" width="0.7" height="39.09" transform="matrix(0.99, 0.1, -0.1, 0.99, 35.01, -71.52)" style="fill:#ffab41"/><path d="M703.5,272.6h0a2,2,0,0,0-2.2,1.8v.4l3.9.4v-.4A2.1,2.1,0,0,0,703.5,272.6Z" transform="translate(0 0.2)" style="fill:#f63e9d"/><rect x="701.1" y="275" width="4" height="2.79" transform="translate(32.9 -72) rotate(6)" style="fill:#ffdd9c"/><polygon points="706.6 360.1 675 360.1 672.3 302.3 709.4 302.3 706.6 360.1" style="fill:#f63e9d"/><polygon points="672.3 302.3 675 360.1 680.4 360.1 677.7 302.3 672.3 302.3" style="fill:#ff629b"/><rect x="901.8" y="83.4" width="111.5" height="72.04" transform="translate(1915.1 239) rotate(180)" style="fill:#fff"/><rect x="907.7" y="88.9" width="99.7" height="61.1" transform="translate(1915.1 239) rotate(180)" style="fill:none;stroke:#10458c;stroke-miterlimit:10"/><rect x="914.8" y="126.8" width="86.6" height="5.23" transform="translate(1916.2 259.1) rotate(180)" style="fill:#ffca57"/><rect x="919.4" y="110.1" width="76.3" height="13.7" transform="translate(1915.1 234.1) rotate(180)" style="fill:#ffca57"/><path d="M949.9,99.8a7,7,0,1,0,7-6.9A7,7,0,0,0,949.9,99.8Z" transform="translate(0 0.2)" style="fill:#ffca57"/><line x1="996.1" y1="140" x2="971.1" y2="140" style="fill:none;stroke:#10458c;stroke-miterlimit:10"/><line x1="945.3" y1="140" x2="920.3" y2="140" style="fill:none;stroke:#10458c;stroke-miterlimit:10"/><polygon points="918.3 98.5 912.7 107 912.2 105.3 910.6 105.6 916.1 97.1 918.3 98.5" style="fill:#f63e9d"/><polygon points="914.3 97.2 920.3 105.5 918.5 105.3 918.2 107 912.3 98.7 914.3 97.2" style="fill:#f63e9d"/><path d="M914.7,92.3h0a.8.8,0,0,1-1.3.3h0c-.5-.5-1.5,0-1.3.7h0a.8.8,0,0,1-.9,1h0a.7.7,0,0,0-.7,1.2h0a.8.8,0,0,1-.4,1.3h0a.8.8,0,0,0,0,1.5h0a.8.8,0,0,1,.4,1.3h0a.7.7,0,0,0,.7,1.2h0a.8.8,0,0,1,.9,1h0a.8.8,0,0,0,1.3.7h0a.8.8,0,0,1,1.3.3h0a.7.7,0,0,0,1.4,0h0a.8.8,0,0,1,1.3-.3h0a.8.8,0,0,0,1.3-.7h0a.8.8,0,0,1,.9-1h0a.7.7,0,0,0,.8-1.2h0a.7.7,0,0,1,.3-1.3h0a.8.8,0,0,0,0-1.5h0a.7.7,0,0,1-.3-1.3h0a.7.7,0,0,0-.8-1.2h0a.8.8,0,0,1-.9-1h0a.8.8,0,0,0-1.3-.7h0a.8.8,0,0,1-1.3-.3h0A.7.7,0,0,0,914.7,92.3Z" transform="translate(0 0.2)" style="fill:#fff;stroke:#f5a30c;stroke-miterlimit:10;stroke-width:0.75px"/><path d="M911.3,97.6a4.1,4.1,0,1,0,4.1-4.2A4.1,4.1,0,0,0,911.3,97.6Z" transform="translate(0 0.2)" style="fill:#fff;stroke:#f5a30c;stroke-miterlimit:10;stroke-width:0.75px"/><polygon points="915.3 96.2 914.8 97.3 913.6 97.5 914.5 98.3 914.3 99.5 915.3 98.9 916.4 99.5 916.2 98.3 917.1 97.5 915.9 97.3 915.3 96.2" style="fill:#f19608"/><path d="M951,163.6c-.2-.5-.3-1-.5-1.5-.8-2.8-1.8-5.6-2.8-8.4s-2.4-4.7-1.3-6.3a2.9,2.9,0,0,1,4-.4c1,.9,1.4,2.3,2,3.4a42.5,42.5,0,0,0,4.2,5.3c.6.6.9,1.6,1.8,1.8A31.3,31.3,0,0,0,951,163.6Z" transform="translate(0 0.2)" style="fill:#fdcba8"/><rect x="657.4" y="125.1" width="10" height="10.04" transform="translate(286 -430.1) rotate(45)" style="fill:#f63e9d"/><rect x="718.1" y="190.5" width="10" height="10.04" transform="translate(350.1 -453.9) rotate(45)" style="fill:#f63e9d"/><rect x="574.6" y="141.8" width="10" height="10.04" transform="translate(273.6 -366.6) rotate(45)" style="fill:#f63e9d"/><rect x="608.5" y="190.5" width="10" height="10.04" transform="translate(98 -190.2) rotate(19.1)" style="fill:#f63e9d"/><rect x="578.4" y="326.3" width="12.3" height="12.26" transform="translate(141.3 -173.1) rotate(19.1)" style="fill:#f63e9d"/><rect x="636" y="147.7" width="7.5" height="7.51" transform="translate(816.7 784.9) rotate(-118.9)" style="fill:#f19608"/><rect x="583.3" y="112" width="14.1" height="14.08" transform="translate(47.7 380.4) rotate(-37.1)" style="fill:#f19608"/><rect x="665.9" y="181.4" width="4.6" height="4.6" transform="translate(830.6 857.5) rotate(-118.9)" style="fill:#fff"/><rect x="644.4" y="87.7" width="4.6" height="4.6" transform="translate(880.6 699.8) rotate(-118.9)" style="fill:#fff"/><rect x="616.5" y="256.3" width="4.6" height="4.6" transform="translate(691.7 925.5) rotate(-118.9)" style="fill:#f19608"/><rect x="644.4" y="277.8" width="4.6" height="4.6" transform="translate(714.3 981.7) rotate(-118.9)" style="fill:#fff"/><rect x="557.1" y="328.7" width="4.6" height="4.6" transform="translate(540.2 980.8) rotate(-118.9)" style="fill:#fff"/><rect x="1012.6" y="179.4" width="10" height="10.04" transform="translate(2005.3 491.2) rotate(-173)" style="fill:#f63e9d"/><rect x="926.2" y="78.3" width="10" height="10.04" transform="translate(1845.4 279.3) rotate(-173)" style="fill:#f63e9d"/><rect x="966.5" y="28.8" width="10" height="10.04" transform="translate(1931.8 185.6) rotate(-173)" style="fill:#f63e9d"/><rect x="1057.9" y="111.1" width="10" height="10.04" transform="translate(2103.9 360.7) rotate(-173)" style="fill:#fff"/><rect x="880.3" y="3.5" width="10" height="10.04" transform="translate(1713 -305.7) rotate(158.7)" style="fill:#f63e9d"/><rect x="685.7" y="57.1" width="10" height="10.04" transform="translate(1368.9 207.8) rotate(-173)" style="fill:#fff"/><rect x="1010.8" y="97.7" width="10" height="10.04" transform="translate(2010.2 -128.6) rotate(161.1)" style="fill:#f63e9d"/><rect x="1010.8" y="238.6" width="10" height="10.04" transform="translate(2055.8 145.5) rotate(161.1)" style="fill:#f63e9d"/><rect x="1018.5" y="149.9" width="7.5" height="7.51" transform="translate(141.8 -387.8) rotate(23)" style="fill:#f19608"/><rect x="1074.3" y="144.2" width="7.5" height="7.51" transform="translate(1497.6 -855.9) rotate(104.9)" style="fill:#f19608"/><rect x="977.8" y="143.5" width="4.6" height="4.6" transform="matrix(0.92, 0.39, -0.39, 0.92, 135.32, -371.89)" style="fill:#fff"/><rect x="1020" y="284.5" width="4.6" height="4.6" transform="translate(193.9 -377.2) rotate(23.1)" style="fill:#fff"/><rect x="1035.8" y="265.7" width="4.6" height="4.6" transform="translate(187.8 -384.9) rotate(23.1)" style="fill:#fff"/><rect x="970.5" y="54.1" width="4.6" height="4.6" transform="translate(99.7 -376.2) rotate(23)" style="fill:#f19608"/><rect x="694" y="117.9" width="4.6" height="4.6" transform="translate(102.7 -262.9) rotate(23)" style="fill:#f19608"/><rect x="697.1" y="92.3" width="4.6" height="4.6" transform="translate(92.9 -266.1) rotate(23.1)" style="fill:#f63e9d"/><rect x="867" y="40.2" width="7" height="7.03" transform="translate(1136.1 -786.2) rotate(104.9)" style="fill:#f19608"/><rect x="935.4" y="54.3" width="4.6" height="4.6" transform="translate(97 -362.4) rotate(23.1)" style="fill:#fff"/><rect x="969.2" y="98.2" width="4.6" height="4.6" transform="translate(116.9 -372.2) rotate(23)" style="fill:#f63e9d"/><rect x="762.6" y="18.3" width="10" height="10.04" transform="translate(510 -699.9) rotate(68.7)" style="fill:#f63e9d"/><rect x="814.5" y="11" width="7.5" height="7.51" transform="translate(516.7 775.7) rotate(-69.4)" style="fill:#f19608"/><rect x="809.9" y="54.9" width="4.6" height="4.6" transform="translate(473 797.6) rotate(-69.4)" style="fill:#fff"/><rect x="720.8" y="66" width="4.6" height="4.6" transform="translate(404.9 721.4) rotate(-69.4)" style="fill:#f19608"/><rect x="765" y="65.4" width="4.6" height="4.6" transform="translate(434.1 762.4) rotate(-69.4)" style="fill:#f63e9d"/><rect x="1064.2" y="340.9" width="10" height="10.04" transform="translate(506.3 -626.5) rotate(42)" style="fill:#f19608"/><rect x="1030" y="313.2" width="10" height="10.04" transform="translate(296.2 1110) rotate(-64.1)" style="fill:#fff"/><rect x="703.7" y="346.7" width="7.3" height="7.26" transform="translate(1441.1 59.4) rotate(132)" style="fill:#f19608"/><rect x="711.3" y="300.2" width="4.6" height="4.6" transform="translate(1416.1 -25) rotate(132)" style="fill:#fff"/><rect x="878.8" y="206.9" width="4.6" height="4.6" transform="translate(1626.2 -305.3) rotate(132)" style="fill:#f63e9d"/><rect x="919.4" y="177.9" width="10.6" height="10.56" transform="translate(1679.6 -381) rotate(132)" style="fill:#fff"/><rect x="973.2" y="232.1" width="4.6" height="4.6" transform="translate(1655.3 972.4) rotate(-146.2)" style="fill:#f19608"/><rect x="948.8" y="344.7" width="4.6" height="4.6" transform="translate(1845.5 -127.3) rotate(132)" style="fill:#f19608"/><polygon points="625.1 73.1 615.7 89.2 634.4 89.2 625.1 73.1" style="fill:#f63e9d"/><polygon points="751.5 151.4 741.7 157.8 752.1 163 751.5 151.4" style="fill:#f19608"/><polygon points="885.5 175.4 888.1 186.8 896.6 178.9 885.5 175.4" style="fill:#f19608"/><polygon points="1036.6 63.3 1027.3 70.2 1038 74.8 1036.6 63.3" style="fill:#f19608"/><polygon points="832.9 63.3 823.6 70.2 834.3 74.8 832.9 63.3" style="fill:#f19608"/><polygon points="662.8 32 660.4 43.4 671.4 39.8 662.8 32" style="fill:#f19608"/><polygon points="559.3 275.7 578.1 279.7 572.1 261.4 559.3 275.7" style="fill:#f19608"/><polygon points="718.6 19.1 712.7 22.6 718.6 26 718.6 19.1" style="fill:#f19608"/></g><rect y="0.2" width="1104" height="434" style="fill:none"/></g></svg>